<svg width="25" height="26" viewBox="0 0 25 26" fill="none" xmlns="http://www.w3.org/2000/svg">
<path d="M0.5 13C0.5 6.37258 5.87258 1 12.5 1C19.1274 1 24.5 6.37258 24.5 13C24.5 19.6274 19.1274 25 12.5 25C5.87258 25 0.5 19.6274 0.5 13Z" fill="#159086"/>
<path d="M0.5 13C0.5 6.37258 5.87258 1 12.5 1C19.1274 1 24.5 6.37258 24.5 13C24.5 19.6274 19.1274 25 12.5 25C5.87258 25 0.5 19.6274 0.5 13Z" stroke="white"/>
<g clip-path="url(#clip0_4229_5935)">
<path d="M16.2066 12.2938C16.5973 12.6844 16.5973 13.3188 16.2066 13.7094L11.2066 18.7094C10.816 19.1 10.1816 19.1 9.79102 18.7094C9.40039 18.3188 9.40039 17.6844 9.79102 17.2938L14.0848 13L9.79414 8.70627C9.40352 8.31565 9.40352 7.68127 9.79414 7.29065C10.1848 6.90002 10.8191 6.90002 11.2098 7.29065L16.2098 12.2906L16.2066 12.2938Z" fill="white"/>
</g>
<defs>
<clipPath id="clip0_4229_5935">
<rect width="16" height="16" fill="white" transform="translate(4.5 5)"/>
</clipPath>
</defs>
</svg>
