<svg width="74" height="74" viewBox="0 0 74 74" fill="none" xmlns="http://www.w3.org/2000/svg">
<rect width="74" height="74" fill="#4D4747"/>
<g clip-path="url(#clip0_4335_15135)">
<path d="M35.2344 15.7344C36.2109 14.7578 37.7969 14.7578 38.7734 15.7344L51.2734 28.2344C52.25 29.2109 52.25 30.7969 51.2734 31.7734C50.2969 32.75 48.7109 32.75 47.7344 31.7734L37 21.0391L26.2656 31.7656C25.2891 32.7422 23.7031 32.7422 22.7266 31.7656C21.75 30.7891 21.75 29.2031 22.7266 28.2266L35.2266 15.7266L35.2344 15.7344Z" fill="white"/>
</g>
<path d="M26.5742 65V56.054H23.5502V54.682H31.2362V56.054H28.1982V65H26.5742ZM36.5426 65.182C33.8966 65.182 32.0626 63.124 32.0626 59.806C32.0626 56.488 33.8966 54.5 36.5426 54.5C39.1886 54.5 41.0366 56.488 41.0366 59.806C41.0366 63.124 39.1886 65.182 36.5426 65.182ZM36.5426 63.768C38.2506 63.768 39.3706 62.214 39.3706 59.806C39.3706 57.384 38.2506 55.914 36.5426 55.914C34.8346 55.914 33.7286 57.384 33.7286 59.806C33.7286 62.214 34.8346 63.768 36.5426 63.768ZM43.1773 65V54.682H46.2993C48.5953 54.682 50.2333 55.48 50.2333 57.804C50.2333 60.058 48.5953 61.094 46.3553 61.094H44.8013V65H43.1773ZM44.8013 59.792H46.2013C47.8533 59.792 48.6373 59.162 48.6373 57.804C48.6373 56.446 47.7833 55.998 46.1453 55.998H44.8013V59.792Z" fill="white"/>
<defs>
<clipPath id="clip0_4335_15135">
<rect width="40" height="40" fill="white" transform="translate(17 5)"/>
</clipPath>
</defs>
</svg>
