<svg width="25" height="24" viewBox="0 0 25 24" fill="none" xmlns="http://www.w3.org/2000/svg">
<path d="M8.0627 1.15308C7.70176 0.281208 6.7502 -0.182854 5.84082 0.0655833L1.71582 1.19058C0.900195 1.41558 0.333008 2.15621 0.333008 2.99996C0.333008 14.5968 9.73613 24 21.333 24C22.1768 24 22.9174 23.4328 23.1424 22.6171L24.2674 18.4921C24.5158 17.5828 24.0518 16.6312 23.1799 16.2703L18.6799 14.3953C17.9158 14.0765 17.0299 14.2968 16.5096 14.939L14.6158 17.25C11.3158 15.689 8.64395 13.0171 7.08301 9.71715L9.39395 7.82808C10.0361 7.30308 10.2564 6.42183 9.9377 5.65777L8.0627 1.15777V1.15308Z" fill="white"/>
</svg>
