<svg xmlns="http://www.w3.org/2000/svg" width="74" height="40" viewBox="0 0 74 40" fill="none">
  <g clip-path="url(#clip0_4067_25388)">
    <path d="M36.9998 26.8421C35.1718 26.8421 33.4525 26.1305 32.1595 24.838C29.4911 22.1699 29.4911 17.8294 32.1595 15.162C33.4525 13.8695 35.1711 13.1579 36.9998 13.1579C38.8285 13.1579 40.547 13.8695 41.8401 15.162C44.5085 17.8301 44.5085 22.1706 41.8401 24.838C40.547 26.1305 38.8285 26.8421 36.9998 26.8421Z" fill="#C70000"/>
    <path d="M11.3053 3.16449L5.82281 0L5.33687 0.806036C1.84574 6.59672 0 13.2339 0 20.0004C0 26.7668 1.84574 33.404 5.33687 39.1947L5.82281 40.0007L11.3053 36.8369L10.8016 36.0004C7.89802 31.1769 6.36275 25.644 6.36275 20.0011C6.36275 14.3581 7.89731 8.82521 10.8016 4.00178L11.3053 3.1652V3.16449Z" fill="#C70000"/>
    <path d="M20.9312 19.9996C20.9312 16.9075 21.7731 13.8837 23.3652 11.2546L23.8724 10.4173L18.3914 7.25427L17.9047 8.05676C15.7236 11.6523 14.5713 15.7826 14.5713 20.0003C14.5713 24.2187 15.7243 28.3483 17.9047 31.9438L18.3914 32.7463L23.8724 29.5825L23.3652 28.7453C21.7724 26.1162 20.9305 23.0916 20.9305 19.9996H20.9312Z" fill="#C70000"/>
    <path d="M68.6628 0.806036L68.1768 0L62.6943 3.16449L63.198 4.00107C66.1016 8.8245 67.6369 14.3567 67.6369 20.0004C67.6369 25.644 66.1023 31.1762 63.198 35.9996L62.6943 36.8362L68.1768 40L68.6628 39.194C72.1539 33.4033 73.9997 26.7661 73.9997 19.9996C73.9997 13.2332 72.1539 6.59601 68.6628 0.805326V0.806036Z" fill="#C70000"/>
    <path d="M55.6078 7.25364L50.1267 10.4167L50.6339 11.254C52.2268 13.883 53.0686 16.9069 53.0679 19.999C53.0679 23.091 52.2261 26.1149 50.6332 28.7446L50.126 29.5819L55.6071 32.745L56.0937 31.9425C58.2748 28.3469 59.4271 24.2166 59.4271 19.999C59.4271 15.7813 58.2748 11.651 56.0937 8.05542L55.6071 7.25293L55.6078 7.25364Z" fill="#C70000"/>
  </g>
  <defs>
    <clipPath id="clip0_4067_25388">
      <rect width="74" height="40" fill="white"/>
    </clipPath>
  </defs>
</svg>