<svg xmlns="http://www.w3.org/2000/svg" width="24" height="25" viewBox="0 0 24 25" fill="none">
  <path d="M3 5.58984C2.5875 5.58984 2.25 5.92734 2.25 6.33984V7.37578L10.3359 14.0133C11.3062 14.8102 12.6984 14.8102 13.6688 14.0133L21.75 7.37578V6.33984C21.75 5.92734 21.4125 5.58984 21 5.58984H3ZM2.25 10.2867V18.3398C2.25 18.7523 2.5875 19.0898 3 19.0898H21C21.4125 19.0898 21.75 18.7523 21.75 18.3398V10.2867L15.0938 15.7523C13.2937 17.2289 10.7016 17.2289 8.90625 15.7523L2.25 10.2867ZM0 6.33984C0 4.68516 1.34531 3.33984 3 3.33984H21C22.6547 3.33984 24 4.68516 24 6.33984V18.3398C24 19.9945 22.6547 21.3398 21 21.3398H3C1.34531 21.3398 0 19.9945 0 18.3398V6.33984Z" fill="#B3B3B3"/>
  <!-- <path d="M64 112c-8.8 0-16 7.2-16 16l0 22.1L220.5 291.7c20.7 17 50.4 17 71.1 0L464 150.1l0-22.1c0-8.8-7.2-16-16-16L64 112zM48 212.2L48 384c0 8.8 7.2 16 16 16l384 0c8.8 0 16-7.2 16-16l0-171.8L322 328.8c-38.4 31.5-93.7 31.5-132 0L48 212.2zM0 128C0 92.7 28.7 64 64 64l384 0c35.3 0 64 28.7 64 64l0 256c0 35.3-28.7 64-64 64L64 448c-35.3 0-64-28.7-64-64L0 128z"/> -->
</svg>

