<svg width="48" height="48" viewBox="0 0 48 48" fill="none" xmlns="http://www.w3.org/2000/svg">
<g clip-path="url(#clip0_4274_104422)">
<path d="M48 24C48 10.7438 37.2562 0 24 0C10.7438 0 0 10.7438 0 24C0 35.25 7.75312 44.7 18.2062 47.2969V31.3313H13.2562V24H18.2062V20.8406C18.2062 12.675 21.9 8.8875 29.925 8.8875C31.4438 8.8875 34.0687 9.1875 35.1469 9.4875V16.125C34.5844 16.0687 33.6 16.0312 32.3719 16.0312C28.4344 16.0312 26.9156 17.5219 26.9156 21.3937V24H34.7531L33.4031 31.3313H26.9062V47.8219C38.7938 46.3875 48 36.2719 48 24Z" fill="#0866FF"/>
</g>
<defs>
<clipPath id="clip0_4274_104422">
<rect width="48" height="48" fill="white"/>
</clipPath>
</defs>
</svg>
