<svg xmlns="http://www.w3.org/2000/svg" width="36" height="40" viewBox="0 0 36 40" fill="none">
  <g clip-path="url(#clip0_922_8863)">
    <path d="M26.1682 14.4028C28.7445 16.2435 31.9007 17.3266 35.3093 17.3266V10.7707C34.6642 10.771 34.0208 10.7036 33.3896 10.5699V15.7303C29.9812 15.7303 26.8255 14.6474 24.2487 12.8068V26.1856C24.2487 32.8784 18.8202 38.3035 12.1245 38.3035C9.62617 38.3035 7.30397 37.5486 5.375 36.2539C7.57666 38.5039 10.647 39.8997 14.0437 39.8997C20.74 39.8997 26.1685 34.4746 26.1685 27.7815V14.4028H26.1682ZM28.5365 7.78877C27.2198 6.35112 26.3553 4.49319 26.1682 2.43912V1.59595H24.3491C24.807 4.20657 26.3691 6.43691 28.5365 7.78877ZM9.61003 31.1182C8.87436 30.1543 8.47672 28.9749 8.47859 27.7623C8.47859 24.7013 10.9615 22.2194 14.0248 22.2194C14.5956 22.2191 15.163 22.3067 15.7071 22.4791V15.7766C15.0713 15.6896 14.4296 15.6525 13.7882 15.6662V20.883C13.2438 20.7105 12.6761 20.623 12.1051 20.6234C9.0419 20.6234 6.55914 23.1051 6.55914 26.1664C6.55914 28.3311 7.8001 30.2052 9.61003 31.1182Z" fill="#FF004F"/>
    <path d="M24.249 12.8067C26.826 14.6473 29.9814 15.7302 33.39 15.7302V10.5697C31.4874 10.1646 29.8031 9.17098 28.5368 7.78877C26.3692 6.43678 24.8074 4.20643 24.3494 1.59595H19.5711V27.7812C19.5602 30.8339 17.0816 33.3056 14.0249 33.3056C12.2238 33.3056 10.6235 32.4475 9.61013 31.118C7.80047 30.2052 6.55937 28.331 6.55937 26.1666C6.55937 23.1055 9.04213 20.6235 12.1053 20.6235C12.6922 20.6235 13.2579 20.7148 13.7885 20.8831V15.6663C7.21027 15.8022 1.91992 21.1743 1.91992 27.7813C1.91992 31.0795 3.2373 34.0695 5.37551 36.2542C7.30447 37.5486 9.62654 38.3038 12.125 38.3038C18.8209 38.3038 24.2492 32.8783 24.2492 26.1856L24.249 12.8067Z" fill="black"/>
    <path d="M33.3897 10.5697V9.17462C31.6739 9.17711 29.9921 8.69689 28.5364 7.78883C29.825 9.19878 31.5217 10.1711 33.3897 10.5699M24.349 1.59586C24.3053 1.34642 24.2719 1.09532 24.2486 0.843172V0H17.6508V26.1855C17.6403 29.2379 15.1617 31.7097 12.1048 31.7097C11.2382 31.7109 10.3835 31.5084 9.60966 31.1183C10.623 32.4476 12.2233 33.3055 14.0244 33.3055C17.081 33.3055 19.5599 30.8341 19.5706 27.7814V1.596L24.349 1.59586ZM13.7884 15.6662V14.1808C13.2371 14.1056 12.6813 14.0679 12.1248 14.068C5.42828 14.068 0 19.4934 0 26.1855C0 30.3812 2.13338 34.0789 5.37531 36.2539C3.2371 34.0694 1.91972 31.0793 1.91972 27.7812C1.91972 21.1743 7.20993 15.8021 13.7884 15.6662Z" fill="#00F2EA"/>
  </g>
  <defs>
    <clipPath id="clip0_922_8863">
      <rect width="35.3103" height="40" fill="white"/>
    </clipPath>
  </defs>
</svg>