<svg width="48" height="48" viewBox="0 0 48 48" fill="none" xmlns="http://www.w3.org/2000/svg">
<path d="M37.179 0H10.821C4.84473 0 0 4.84473 0 10.821V37.179C0 43.1553 4.84473 48 10.821 48H37.179C43.1553 48 48 43.1553 48 37.179V10.821C48 4.84473 43.1553 0 37.179 0Z" fill="#06C755"/>
<path d="M39.9992 21.738C39.9992 14.577 32.8202 8.75098 23.9957 8.75098C15.1712 8.75098 7.99219 14.577 7.99219 21.738C7.99219 28.158 13.6862 33.534 21.3767 34.551C21.8972 34.6635 22.6067 34.8945 22.7867 35.34C22.9487 35.745 22.8917 36.378 22.8392 36.7875C22.8392 36.7875 22.6517 37.917 22.6112 38.157C22.5407 38.562 22.2902 39.7395 23.9972 39.0195C25.7057 38.2995 33.2132 33.5925 36.5702 29.7285C38.8892 27.1845 40.0007 24.6045 40.0007 21.738H39.9992Z" fill="white"/>
<path d="M34.6741 25.8733H30.1786C30.0091 25.8733 29.8726 25.7368 29.8726 25.5673V25.5628V18.5908V18.5833C29.8726 18.4138 30.0091 18.2773 30.1786 18.2773H34.6741C34.8421 18.2773 34.9801 18.4153 34.9801 18.5833V19.7188C34.9801 19.8883 34.8436 20.0248 34.6741 20.0248H31.6186V21.2038H34.6741C34.8421 21.2038 34.9801 21.3418 34.9801 21.5098V22.6453C34.9801 22.8148 34.8436 22.9513 34.6741 22.9513H31.6186V24.1303H34.6741C34.8421 24.1303 34.9801 24.2683 34.9801 24.4363V25.5718C34.9801 25.7413 34.8436 25.8778 34.6741 25.8778V25.8733Z" fill="#06C755"/>
<path d="M18.0437 25.8734C18.2117 25.8734 18.3497 25.7369 18.3497 25.5674V24.4319C18.3497 24.2639 18.2117 24.1259 18.0437 24.1259H14.9882V18.5819C14.9882 18.4139 14.8502 18.2759 14.6822 18.2759H13.5467C13.3772 18.2759 13.2407 18.4124 13.2407 18.5819V25.5614V25.5674C13.2407 25.7369 13.3772 25.8734 13.5467 25.8734H18.0422H18.0437Z" fill="#06C755"/>
<path d="M20.7496 18.2773H19.6156C19.4466 18.2773 19.3096 18.4143 19.3096 18.5833V25.5673C19.3096 25.7363 19.4466 25.8733 19.6156 25.8733H20.7496C20.9186 25.8733 21.0556 25.7363 21.0556 25.5673V18.5833C21.0556 18.4143 20.9186 18.2773 20.7496 18.2773Z" fill="#06C755"/>
<path d="M28.4764 18.2773H27.341C27.1715 18.2773 27.0349 18.4138 27.0349 18.5833V22.7308L23.8399 18.4153C23.8324 18.4048 23.8235 18.3943 23.816 18.3838C23.816 18.3838 23.8159 18.3838 23.8144 18.3823C23.8084 18.3763 23.8024 18.3688 23.7964 18.3628C23.7949 18.3613 23.792 18.3598 23.7905 18.3583C23.7845 18.3538 23.78 18.3493 23.774 18.3448C23.771 18.3433 23.7679 18.3403 23.7649 18.3388C23.7604 18.3343 23.7545 18.3313 23.7485 18.3283C23.7455 18.3268 23.7424 18.3238 23.7394 18.3223C23.7334 18.3193 23.7289 18.3163 23.7229 18.3133C23.7199 18.3118 23.7169 18.3103 23.7139 18.3088C23.7079 18.3058 23.702 18.3028 23.696 18.3013C23.693 18.3013 23.6899 18.2983 23.6854 18.2983C23.6794 18.2968 23.6734 18.2938 23.6674 18.2923C23.6644 18.2923 23.66 18.2908 23.657 18.2893C23.651 18.2893 23.6449 18.2863 23.6389 18.2848C23.6344 18.2848 23.63 18.2848 23.6255 18.2833C23.6195 18.2833 23.6149 18.2818 23.6089 18.2818C23.6029 18.2818 23.5984 18.2818 23.5924 18.2818C23.5894 18.2818 23.585 18.2818 23.582 18.2818H22.454C22.286 18.2818 22.1479 18.4183 22.1479 18.5878V25.5718C22.1479 25.7398 22.2845 25.8778 22.454 25.8778H23.5894C23.7589 25.8778 23.8955 25.7413 23.8955 25.5718V21.4243L27.095 25.7458C27.1175 25.7773 27.1445 25.8028 27.1745 25.8223C27.1745 25.8223 27.1774 25.8238 27.1774 25.8253C27.1834 25.8298 27.1894 25.8328 27.1969 25.8373C27.1999 25.8388 27.2029 25.8403 27.2059 25.8418C27.2104 25.8448 27.2165 25.8463 27.221 25.8493C27.2255 25.8523 27.2315 25.8538 27.236 25.8553C27.239 25.8553 27.242 25.8583 27.245 25.8583C27.2525 25.8613 27.2585 25.8628 27.266 25.8643C27.266 25.8643 27.269 25.8643 27.2705 25.8643C27.296 25.8703 27.323 25.8748 27.35 25.8748H28.478C28.646 25.8748 28.7839 25.7383 28.7839 25.5688V18.5848C28.7839 18.4168 28.6475 18.2788 28.478 18.2788L28.4764 18.2773Z" fill="#06C755"/>
</svg>
