<svg width="48" height="48" viewBox="0 0 48 48" fill="none" xmlns="http://www.w3.org/2000/svg">
<path d="M45.8048 13.0069C45.2814 11.0361 43.7392 9.48392 41.7811 8.95717C38.232 8 24.0002 8 24.0002 8C24.0002 8 9.76855 8 6.2193 8.95717C4.26121 9.484 2.71905 11.0361 2.19563 13.0069C1.24463 16.5792 1.24463 24.0323 1.24463 24.0323C1.24463 24.0323 1.24463 31.4855 2.19563 35.0578C2.71905 37.0286 4.26121 38.5161 6.2193 39.0428C9.76855 40 24.0002 40 24.0002 40C24.0002 40 38.2319 40 41.7811 39.0428C43.7392 38.5161 45.2814 37.0286 45.8048 35.0578C46.7558 31.4855 46.7558 24.0323 46.7558 24.0323C46.7558 24.0323 46.7558 16.5792 45.8048 13.0069ZM19.3456 30.7993V17.2654L31.2405 24.0325L19.3456 30.7993Z" fill="black"/>
</svg>
