<svg width="48" height="48" viewBox="0 0 48 48" fill="none" xmlns="http://www.w3.org/2000/svg">
<path d="M23.6589 13.2326C17.6902 13.2326 12.8758 18.047 12.8758 24.0158C12.8758 29.9845 17.6902 34.7989 23.6589 34.7989C29.6276 34.7989 34.442 29.9845 34.442 24.0158C34.442 18.047 29.6276 13.2326 23.6589 13.2326ZM23.6589 31.0262C19.8018 31.0262 16.6485 27.8823 16.6485 24.0158C16.6485 20.1492 19.7924 17.0053 23.6589 17.0053C27.5255 17.0053 30.6694 20.1492 30.6694 24.0158C30.6694 27.8823 27.5161 31.0262 23.6589 31.0262ZM37.3982 12.7916C37.3982 14.1899 36.2721 15.3067 34.8831 15.3067C33.4848 15.3067 32.368 14.1805 32.368 12.7916C32.368 11.4026 33.4942 10.2764 34.8831 10.2764C36.2721 10.2764 37.3982 11.4026 37.3982 12.7916ZM44.5401 15.3442C44.3805 11.9751 43.611 8.99073 41.1428 6.53192C38.684 4.0731 35.6996 3.30355 32.3305 3.13463C28.8581 2.93755 18.4504 2.93755 14.978 3.13463C11.6183 3.29417 8.6339 4.06372 6.1657 6.52253C3.69751 8.98134 2.93734 11.9657 2.76842 15.3348C2.57134 18.8072 2.57134 29.2149 2.76842 32.6873C2.92796 36.0564 3.69751 39.0408 6.1657 41.4996C8.6339 43.9584 11.6089 44.728 14.978 44.8969C18.4504 45.094 28.8581 45.094 32.3305 44.8969C35.6996 44.7373 38.684 43.9678 41.1428 41.4996C43.6016 39.0408 44.3711 36.0564 44.5401 32.6873C44.7371 29.2149 44.7371 18.8166 44.5401 15.3442ZM40.0541 36.413C39.3221 38.2525 37.905 39.6696 36.0562 40.411C33.2877 41.509 26.7184 41.2556 23.6589 41.2556C20.5995 41.2556 14.0208 41.4996 11.2616 40.411C9.42222 39.6789 8.00512 38.2618 7.26372 36.413C6.16571 33.6445 6.41909 27.0752 6.41909 24.0158C6.41909 20.9563 6.17509 14.3776 7.26372 11.6185C7.99574 9.77905 9.41284 8.36195 11.2616 7.62055C14.0301 6.52253 20.5995 6.77592 23.6589 6.77592C26.7184 6.77592 33.2971 6.53192 36.0562 7.62055C37.8956 8.35256 39.3127 9.76966 40.0541 11.6185C41.1522 14.387 40.8988 20.9563 40.8988 24.0158C40.8988 27.0752 41.1522 33.6539 40.0541 36.413Z" fill="black"/>
</svg>
