<svg width="24" height="24" viewBox="0 0 24 24" fill="none" xmlns="http://www.w3.org/2000/svg">
<path d="M19.0595 7.05947C19.6454 6.47354 19.6454 5.52197 19.0595 4.93604C18.4735 4.3501 17.522 4.3501 16.936 4.93604L12.0001 9.87666L7.05947 4.94072C6.47354 4.35479 5.52197 4.35479 4.93604 4.94072C4.3501 5.52666 4.3501 6.47822 4.93604 7.06416L9.87666 12.0001L4.94072 16.9407C4.35479 17.5267 4.35479 18.4782 4.94072 19.0642C5.52666 19.6501 6.47822 19.6501 7.06416 19.0642L12.0001 14.1235L16.9407 19.0595C17.5267 19.6454 18.4782 19.6454 19.0642 19.0595C19.6501 18.4735 19.6501 17.522 19.0642 16.936L14.1235 12.0001L19.0595 7.05947Z" fill="white"/>
</svg>
