<svg xmlns="http://www.w3.org/2000/svg" height="38.653" width="146.067" xml:space="preserve"><path style="fill:#231f20;fill-opacity:1;fill-rule:nonzero;stroke:none" d="M99.867 100.281c0-11.187-2.914-20.601-8.734-28.258-7.652-10.167-19.301-15.246-34.95-15.246l-55.48-.215v25.704h53.95c6.105 0 10.874 1.132 14.335 3.418 3.516 2.199 5.621 6.015 6.293 11.464.211.586.309 1.504.309 2.754 0 4.629-1.582 8.672-4.73 12.129-3.145 3.457-7.762 6.758-13.868 9.914-16.387 8.914-25.133 13.68-26.215 14.344-9.152 5.52-15.953 11.199-20.418 17.078-5.554 7.434-8.332 15.891-8.332 25.371 0 13.235 4.29 23.742 12.895 31.535 7.66 6.915 16.39 10.372 26.219 10.372h52.742v-25.489H41.14c-4.746 0-8.41-1.504-11.024-4.511-2.605-3.028-3.906-6.7-3.906-11.036.41-5.285 2.336-9.218 5.785-11.789 5.969-4.492 13.242-8.933 21.852-13.347 10.152-5.227 16.382-8.528 18.691-9.91 7.652-4.805 13.785-10.352 18.39-16.672 5.965-8.321 8.938-17.532 8.938-27.61M215.789 109.949c0-13.504-4.582-25.758-13.742-36.754-10.723-12.785-24.703-19.152-41.949-19.152-14.254 0-26.668 5.652-37.254 16.984-10.735 11.09-16.098 24.48-16.098 40.133 0 19.914 5.977 35.586 17.926 46.985 10.176 9.777 22.152 14.675 35.949 14.675 11.922 0 22.082-3.035 30.43-9.082 8.273-6.179 15.652-15.918 22.09-29.187l-63.106-37.89-10.168 20.976 39.68 23.972c-1.969 1.907-4.414 3.469-7.328 4.68-2.926 1.223-6.781 1.836-11.598 1.836-9.371 0-16.598-3.547-21.68-10.598-5.3-7.066-7.941-15.582-7.941-25.582 0-8.547 2.641-16.039 7.941-22.5 5.84-7.148 13.332-10.715 22.5-10.715 9.426 0 16.59 2.95 21.473 8.84 4.289 5.125 7.598 13.739 9.981 25.797l22.894-3.418M423.945 109.949c0-13.504-4.586-25.758-13.75-36.754-10.722-12.785-24.711-19.152-41.949-19.152-14.254 0-26.668 5.652-37.254 16.984-10.722 11.09-16.086 24.48-16.086 40.133 0 19.914 5.961 35.586 17.914 46.985 10.184 9.777 22.153 14.675 35.942 14.675 11.941 0 22.101-3.035 30.437-9.082 8.289-6.179 15.649-15.918 22.106-29.187l-63.114-37.89-10.183 20.976 39.687 23.972c-1.972 1.907-4.414 3.469-7.324 4.68-2.93 1.223-6.793 1.836-11.601 1.836-9.372 0-16.602-3.547-21.692-10.598-5.281-7.066-7.933-15.582-7.933-25.582 0-8.547 2.652-16.039 7.933-22.5 5.844-7.148 13.344-10.715 22.5-10.715 9.445 0 16.61 2.95 21.492 8.84 4.274 5.125 7.59 13.739 9.981 25.797l22.894-3.418M358.691 289.934 281.879 66.691c-3.063-8.164-8.621-12.257-16.684-12.257-3.867 0-7.359 1.18-10.476 3.527-3.055 2.36-5.188 5.7-6.414 10.035L212.398 170.86h25.743l27.464-79.035 67.856 198.11h25.23M525.574 56.387h-23.519l-.106 67.011c0 6.77-2.082 12.715-6.222 17.832-4.157 5.11-9.395 7.676-15.727 7.676-6.133 0-11.277-2.336-15.457-7.004-4.191-4.675-6.281-10.25-6.281-16.738V56.387h-23.883v69.172c0 13.086 4.387 24.304 13.18 33.64 8.785 9.336 19.625 14.004 32.519 14.004 10.313 0 19.785-3.523 28.402-10.586 11.399-9.336 17.094-22.285 17.094-38.828V56.387M633.07 100.281c0-11.187-2.91-20.601-8.734-28.258-7.656-10.167-19.309-15.246-34.949-15.246l-55.485-.215v25.704h53.953c6.098 0 10.875 1.132 14.333 3.418 3.519 2.199 5.617 6.015 6.296 11.464.2.586.305 1.504.305 2.754 0 4.629-1.582 8.672-4.73 12.129-3.141 3.457-7.77 6.758-13.864 9.914-16.394 8.914-25.136 13.68-26.215 14.344-9.144 5.52-15.957 11.199-20.425 17.078-5.559 7.434-8.325 15.891-8.325 25.371 0 13.235 4.29 23.742 12.911 31.535 7.644 6.915 16.375 10.372 26.207 10.372h52.726v-25.489h-52.726c-4.743 0-8.426-1.504-11.028-4.511-2.601-3.028-3.922-6.7-3.922-11.036.411-5.285 2.348-9.218 5.805-11.789 5.957-4.492 13.238-8.933 21.848-13.347 10.144-5.227 16.383-8.528 18.691-9.91 7.653-4.805 13.774-10.352 18.395-16.672 5.961-8.321 8.933-17.532 8.933-27.61M704.891 56.855h-25.852c-11.539 0-20.168 3.672-25.871 11.004-4.945 6.477-7.43 15.032-7.43 25.676v104.766h23.157V170.93h35.996v-24.7h-35.996V89.91c0-2.43.828-4.414 2.468-5.933 1.703-1.621 4.356-2.414 7.969-2.414h25.559V56.855M802.922 103.645c0-14.243-4.32-25.957-12.945-35.16-8.754-9.376-19.762-14.051-32.997-14.051-12.367 0-22.585 3.933-30.656 11.828-9.504 9.207-14.258 22.558-14.258 40.015v64.582h23.532l-.203-68.093c0-6.946 2.16-12.688 6.492-17.23 4.336-4.528 9.363-6.806 15.093-6.806 6.274 0 11.579 2.5 15.911 7.54 4.332 5.007 6.496 10.507 6.496 16.496v68.093h23.535v-67.214M890.508 138.828s-6.797 4.348-9.41 5.567c-5.7 2.714-10.981 4.082-15.86 4.082-1.093-.149-1.933-.223-2.547-.223-7.589-.891-13.836-4.199-18.711-9.934-5.417-6.347-8.132-14.414-8.132-24.211 0-1.843.074-3.281.211-4.312 1.011-11.047 5.113-19.317 12.296-24.856 5.563-4.277 11.735-6.394 18.5-6.394 9.5 0 16.883 3.855 22.176 11.582 5.074 7.644 7.617 17.5 7.617 29.578v100.535h23.536v-108.64c0-12.364-4.036-24.168-12.098-35.41C897.652 61.542 883.57 54.23 865.82 54.23c-17.605 0-31.332 6.765-41.148 20.308-7.996 11.027-11.981 23.234-11.981 36.621 0 18.996 5.524 34.348 16.567 46.125 9.551 10.215 20.082 15.324 31.609 15.324 8.875 0 15.754-.722 20.637-2.199 3.187-1.055 9.004-4.004 9.004-4.004M55.855 21.27c0-3.204-.992-5.704-2.98-7.493-1.973-1.785-4.676-2.664-8.094-2.664h-1.367v4.602h1.23c2.387 0 4.09.445 5.122 1.316 1.03.88 1.539 2.246 1.539 4.063v1.054H35.46V11.36c0-2.394.535-4.062 1.61-4.992 1.058-.945 2.812-1.418 5.25-1.418h13.077V.52H42.02c-3.464 0-6.09.848-7.886 2.528-1.887 1.789-2.824 4.48-2.824 8.097v11.004h-3.356v4.446h3.356v4.12h4.152v-4.12h20.395v-5.325M223.602 25.996h-2.254v5.773h2.254v-5.773zm-3.875 0h-2.309v5.773h2.309v-5.773zm2.058-5.625c0-6.766-1.652-11.785-4.949-15.02-3.301-3.242-8.34-4.863-15.117-4.863h-5.742v4.446h5.777c5.324 0 9.242 1.101 11.754 3.347 2.765 2.414 4.156 6.399 4.156 11.946v4.12h4.121v-3.976zm-5.887 4.95h-21.046v4.425h21.046V25.32M375.73 21.602c-1.968 1.007-4.328 1.882-7.074 2.597-2.758.742-5.258 1.106-7.504 1.106v4.53c2.332 0 4.965-.343 7.887-1.046 2.918-.684 5.145-1.465 6.691-2.336v-4.851zm12.727.097c0-3.758-.367-6.941-1.098-9.504-1.066-3.523-2.863-6.265-5.39-8.21-3.098-2.333-7.297-3.497-12.582-3.497h-8.688v4.446h8.828c3.989 0 7.145.808 9.481 2.46 1.988 1.376 3.418 3.418 4.289 6.114.668 2.144 1.004 4.765 1.004 7.89v7.657h4.156v-7.356M555.387 0l-9.774 8.477c-2.539-2.41-5.371-4.317-8.515-5.696-3.371-1.472-6.77-2.215-10.196-2.215v4.395c3.602.41 6.95 1.348 10.075 2.851 3.457 1.72 6.168 3.934 8.117 6.68 2.25 3.117 3.375 6.738 3.375 10.84h-20.555v4.504h24.899V24.94c0-2.507-.372-4.832-1.114-6.98a25.18 25.18 0 0 0-3.168-6.137l6.856-6.05V0M721.395 16.047c0-4.816-1.235-8.535-3.719-11.152-2.848-2.97-7.262-4.446-13.262-4.446h-8.473v4.446h8.375c3.77 0 6.68.613 8.747 1.863 1.808 1.074 3.011 2.676 3.601 4.804-1.914.887-4.152 1.504-6.742 1.868-2.578.347-6.246.515-10.969.515v4.328c4.992 0 8.762-.207 11.32-.605 2.571-.402 4.903-1.074 7.008-2.043l.024 9.648h-16.684c-.285-2.605-1.035-4.941-2.281-7-1.344-2.257-3.063-3.859-5.16-4.796v5.007c1.308.91 2.273 2.27 2.922 4.075.644 1.804.972 4.21.972 7.218h24.321v-13.73M888.668 25.945h-2.246v5.766h2.246v-5.766zm-3.805 0h-2.304v5.766h2.304v-5.766zm-10.679-10.28h-13.961v4.07h13.961v-4.07zm0 10.01h-13.961v4.122h13.961v-4.121zm13.39-2.687c0-4.383-.508-8.086-1.5-11.086-1.172-3.609-3.07-6.336-5.687-8.191C877.402 1.57 873.43.52 868.461.52h-8.766v4.5h9.422c5.524 0 9.395 1.75 11.625 5.261 1.762 2.778 2.633 6.977 2.633 12.602v1.582h4.199v-1.477M1054.14 22.727h-4.19V.469h-4.12v22.258h-3.31c-.73-4.766-2.66-9.309-5.79-13.567-3.26-4.48-6.95-7.383-11.06-8.691v4.89c2.93 1.094 5.64 3.325 8.1 6.664 2.46 3.336 3.96 6.915 4.53 10.704h-12.63v4.507h20.16V31.2h4.12v-3.965h4.19v-4.507M965.934 56.27h-23.532v114.464h23.532V56.269zm1.824 135.878c0-4.48-1.25-8.085-3.75-10.808-2.504-2.727-5.61-4.082-9.324-4.082-3.864 0-7.106 1.433-9.746 4.305-2.782 2.722-4.168 6.503-4.168 11.347 0 4.055 1.386 7.434 4.168 10.156 2.621 2.559 5.746 3.848 9.324 3.848 3.586 0 6.769-1.348 9.531-4.062 2.652-2.872 3.965-6.446 3.965-10.704M1071.28 116.328c0 9.656-2.82 17.442-8.47 23.34-5.67 5.891-12.86 8.84-21.6 8.84-9.74 0-17.47-3.684-23.16-11.059-4.8-6.344-7.21-13.672-7.21-22 0-9.961 2.13-18.093 6.41-24.433 5.41-8.184 13.67-12.285 24.78-12.285 8.74 0 15.68 2.878 20.83 8.625 5.62 6.492 8.42 16.14 8.42 28.972zm24.25-1.765c0-14.493-4.28-27.66-12.85-39.504-9.92-13.758-22.72-20.625-38.38-20.625-17.14 0-31.1 5.8-41.86 17.43-10.776 11.62-16.147 26.156-16.147 43.585l.301.215h.301l-.301-.664c0 16.27 5.691 30.117 17.116 41.594 10.8 10.816 23.07 16.226 36.84 16.226 14.11 0 26.5-4.898 37.17-14.683 11.88-10.957 17.81-25.481 17.81-43.574M1095.37 41.066H0v2.625h1095.37v-2.625" transform="matrix(.13333 0 0 -.13333 0 38.653)"/><path style="fill:#231f20;fill-opacity:1;fill-rule:nonzero;stroke:none" d="M1045.77 123.73c0-6.25-5.05-11.296-11.27-11.296-6.23 0-11.27 5.046-11.27 11.296 0 6.231 5.04 11.29 11.27 11.29 6.22 0 11.27-5.059 11.27-11.29" transform="matrix(.13333 0 0 -.13333 0 38.653)"/><path style="fill:#fff;fill-opacity:1;fill-rule:nonzero;stroke:none" d="M1042.06 127.773a3.516 3.516 0 0 0-3.52-3.527 3.523 3.523 0 0 0-3.52 3.527 3.53 3.53 0 0 0 3.52 3.536c1.95 0 3.52-1.582 3.52-3.536" transform="matrix(.13333 0 0 -.13333 0 38.653)"/></svg>